# xmcd
#
# Track frame offsets:
# 150
# 16167
# 23426
# 36690
# 42731
# 54724
# 103577
# 118189
# 136635
# 142230
# 155784
#
# Disc length: 2155 seconds
#
# Revision: 0
# Processed by: cddbd v1.5.1PL0 Copyright (c) Steve Scherf et al.
# Submitted via: Audion 3.0.2 (http://www.panic.com/audion/)
#
DISCID=9e08690b
DTITLE=Various Artist - Marco's 2
DYEAR=1900
DGENRE=
TTITLE0=Easy Does It
TTITLE1=Easy Does It (slow)
TTITLE2=Yardbird Suite
TTITLE3=Yardbird Solo (slow)
TTITLE4=Bird of Paradise Solo (slow)
TTITLE5=Stella By Starlight
TTITLE6=Embraceable You
TTITLE7=Out of Nowhere
TTITLE8=Jumping at the Savoy (slow)
TTITLE9=Way Down Yonder in NO
TTITLE10=Way Down Yonder in NO (slow)
EXTD=
EXTT0=
EXTT1=
EXTT2=
EXTT3=
EXTT4=
EXTT5=
EXTT6=
EXTT7=
EXTT8=
EXTT9=
EXTT10=
PLAYORDER=
